<svg xmlns="http://www.w3.org/2000/svg" viewBox="0 0 640 190" role="img" aria-labelledby="title desc">
  <title id="title">AKOKO SOLUTIONS logo</title>
  <desc id="desc">AKOKO SOLUTIONS wordmark with a stylized poultry badge.</desc>
  <rect width="640" height="190" rx="30" fill="#fff8f1"/>
  <g transform="translate(24 18) scale(.6)">
    <rect width="256" height="256" rx="56" fill="#fff8f1"/>
    <path fill="#f58220" d="M42 106c0-46 38-82 86-82s86 36 86 82v60c0 38-31 69-69 69h-34c-38 0-69-31-69-69v-60Z"/>
    <path fill="#1f2933" d="M35 105c0-50 42-89 93-89s93 39 93 89v65c0 40-33 73-73 73h-40c-40 0-73-33-73-73v-65Zm17 0v65c0 31 25 56 56 56h40c31 0 56-25 56-56v-65c0-41-34-72-76-72s-76 31-76 72Z"/>
    <path fill="#fff7ec" d="M88 80c9-27 33-43 61-36 27 7 46 30 45 58-.5 13-5 25-13 35 11 17 8 42-10 58-17 15-42 17-61 6-29-18-42-46-41-79 .3-15 7-29 19-42Z"/>
    <path fill="#1f2933" d="M156 37c6 3 10 9 11 16 9-2 20 2 25 9-5 3-10 4-15 4 5 3 10 8 12 14-8 1-16-1-22-5-2 7-7 13-14 16-3-8-2-17 2-24-8 1-16-1-22-7 7-4 15-5 23-3-3-6-3-14 0-20Z"/>
    <path fill="#1f2933" d="M86 81c12-35 44-54 78-44 32 9 55 38 54 73-.3 18-8 35-21 49 7 22 0 45-18 61-23 20-56 22-81 6-35-22-52-58-50-102 .7-20 11-36 38-43Zm16 17c-21 6-30 16-31 28-1 35 12 62 39 79 16 10 38 9 53-4 14-13 18-33 8-49l-4-7 6-6c9-9 14-20 14-32 1-23-15-43-38-49-22-6-41 7-47 29v11Z"/>
    <path fill="#1f2933" d="M133 91c2-17 18-29 36-27 18 2 32 17 31 36-.6 18-16 31-34 30-18-1-33-17-33-36v-3Z"/>
    <path fill="#fff7ec" d="M153 93c1-8 8-13 16-12 8 1 14 8 14 16-.2 8-7 14-16 14-8-.1-14-7-14-16v-2Z"/>
    <path fill="#f4c430" d="M163 91c1-4 4-7 9-6 4 .5 8 4 8 8-.1 5-4 8-9 8s-8-4-8-8v-2Z"/>
    <path fill="#1f2933" d="M171 89a6 6 0 1 1 0 12 6 6 0 0 1 0-12Z"/>
    <path fill="#f4c430" d="M187 113c18 5 30 14 38 27-16 8-33 8-52 0 3-12 7-21 14-27Z"/>
    <path fill="#1f2933" d="M184 105c23 6 39 18 50 37l5 9-9 4c-20 10-42 10-65 0l-8-3 2-9c4-17 10-30 20-38l3-2 2 2Zm7 18c-3 4-6 8-8 14 10 3 20 4 30 1-6-6-13-11-22-15Z"/>
    <path fill="none" stroke="#1f2933" stroke-linecap="round" stroke-width="12" d="M100 126c9 16 24 22 43 18"/>
    <path fill="#1f2933" d="M78 157c-20 3-35-6-44-25 26-6 45-1 57 14l-13 11Zm103-2c19 5 34-2 46-20-25-9-44-6-58 7l12 13Z"/>
  </g>
  <text x="190" y="84" font-family="Arial, Helvetica, sans-serif" font-size="52" font-weight="900" letter-spacing="1.4" fill="#1f2933">AKOKO</text>
  <text x="193" y="132" font-family="Arial, Helvetica, sans-serif" font-size="34" font-weight="800" letter-spacing="1.2" fill="#c65f0f">SOLUTIONS</text>
  <path fill="#f58220" d="M189 166h382v8H189z"/>
</svg>
